<?xml version="1.0" encoding="UTF-8"?>
<!DOCTYPE svg PUBLIC "-//W3C//DTD SVG 1.1//EN" "http://www.w3.org/Graphics/SVG/1.1/DTD/svg11.dtd">
<svg xmlns="http://www.w3.org/2000/svg" version="1.1" width="256px" height="256px" style="shape-rendering:geometricPrecision; text-rendering:geometricPrecision; image-rendering:optimizeQuality; fill-rule:evenodd; clip-rule:evenodd" xmlns:xlink="http://www.w3.org/1999/xlink">
<g><path style="opacity:0.129" fill="#151515" d="M 52.5,-0.5 C 102.5,-0.5 152.5,-0.5 202.5,-0.5C 233.435,6.94475 250.268,26.6114 253,58.5C 253.667,102.5 253.667,146.5 253,190.5C 252.152,208.694 244.985,223.861 231.5,236C 225.221,239.946 219.221,244.279 213.5,249C 207.946,251.79 202.279,253.957 196.5,255.5C 150.5,255.5 104.5,255.5 58.5,255.5C 41.965,250.468 27.7983,241.468 16,228.5C 7.19887,217.767 2.5322,205.434 2,191.5C 1.33333,146.833 1.33333,102.167 2,57.5C 5.19962,26.1426 22.033,6.8093 52.5,-0.5 Z"/></g>
<g><path style="opacity:1" fill="#646dda" d="M 229.5,32.5 C 161.5,32.5 93.5,32.5 25.5,32.5C 34.6956,20.2259 47.0289,13.0593 62.5,11C 84.1667,10.8333 105.833,10.6667 127.5,10.5C 150.873,10.3589 174.207,10.8589 197.5,12C 210.984,14.6883 221.65,21.5217 229.5,32.5 Z"/></g>
<g><path style="opacity:1" fill="#5a72de" d="M 25.5,32.5 C 93.5,32.5 161.5,32.5 229.5,32.5C 236.174,40.194 239.841,49.194 240.5,59.5C 240.5,61.1667 240.5,62.8333 240.5,64.5C 238.801,64.3398 237.134,64.5065 235.5,65C 236.38,66.3561 236.714,67.8561 236.5,69.5C 214.993,69.1694 193.66,69.5027 172.5,70.5C 150.827,57.203 129.16,57.203 107.5,70.5C 78.0047,69.5019 48.338,69.1686 18.5,69.5C 18.2865,67.8561 18.6198,66.3561 19.5,65C 17.8659,64.5065 16.1992,64.3398 14.5,64.5C 14.5,62.8333 14.5,61.1667 14.5,59.5C 15.159,49.194 18.8257,40.194 25.5,32.5 Z"/></g>
<g><path style="opacity:1" fill="#586ddc" d="M 43.5,40.5 C 99.5,41.8333 155.5,41.8333 211.5,40.5C 218.5,43.659 224.167,48.4923 228.5,55C 161.167,55.6667 93.8333,55.6667 26.5,55C 30.8332,48.4923 36.4999,43.659 43.5,40.5 Z"/></g>
<g><path style="opacity:1" fill="#5868db" d="M 211.5,40.5 C 155.5,41.8333 99.5,41.8333 43.5,40.5C 48.7807,37.5939 54.4474,35.7606 60.5,35C 104.5,34.3333 148.5,34.3333 192.5,35C 199.22,35.7427 205.553,37.576 211.5,40.5 Z"/></g>
<g><path style="opacity:1" fill="#f9fbfe" d="M 192.5,105.5 C 193.15,107.435 193.483,109.435 193.5,111.5C 211.252,116.924 220.918,128.924 222.5,147.5C 220.295,169.538 208.295,182.371 186.5,186C 147.167,186.667 107.833,186.667 68.5,186C 47.5325,181.573 35.5325,168.74 32.5,147.5C 32.6213,129.564 40.4547,116.231 56,107.5C 57.6401,102.225 59.8068,97.2249 62.5,92.5C 72.34,83.4922 83.6733,80.9922 96.5,85C 113.658,64.6268 134.991,58.6268 160.5,67C 177.646,74.4628 188.312,87.2962 192.5,105.5 Z"/></g>
<g><path style="opacity:1" fill="#5879e0" d="M 14.5,64.5 C 16.1992,64.3398 17.8659,64.5065 19.5,65C 18.6198,66.3561 18.2865,67.8561 18.5,69.5C 48.338,69.1686 78.0047,69.5019 107.5,70.5C 102.546,73.8133 98.2127,77.8133 94.5,82.5C 86.3727,79.7794 78.3727,80.1127 70.5,83.5C 52.0075,82.5031 33.3408,82.1698 14.5,82.5C 14.5,76.5 14.5,70.5 14.5,64.5 Z"/></g>
<g><path style="opacity:1" fill="#5879e0" d="M 240.5,64.5 C 240.5,70.5 240.5,76.5 240.5,82.5C 222.167,82.5 203.833,82.5 185.5,82.5C 181.82,77.8206 177.486,73.8206 172.5,70.5C 193.66,69.5027 214.993,69.1694 236.5,69.5C 236.714,67.8561 236.38,66.3561 235.5,65C 237.134,64.5065 238.801,64.3398 240.5,64.5 Z"/></g>
<g><path style="opacity:1" fill="#456ade" d="M 172.5,70.5 C 177.486,73.8206 181.82,77.8206 185.5,82.5C 188.786,88.0745 191.786,93.7412 194.5,99.5C 194.663,101.857 194.497,104.19 194,106.5C 193.617,105.944 193.117,105.611 192.5,105.5C 188.312,87.2962 177.646,74.4628 160.5,67C 134.991,58.6268 113.658,64.6268 96.5,85C 83.6733,80.9922 72.34,83.4922 62.5,92.5C 61.475,92.1034 61.3083,91.4368 62,90.5C 64.4412,87.5464 67.2745,85.2131 70.5,83.5C 78.3727,80.1127 86.3727,79.7794 94.5,82.5C 98.2127,77.8133 102.546,73.8133 107.5,70.5C 129.16,57.203 150.827,57.203 172.5,70.5 Z"/></g>
<g><path style="opacity:1" fill="#567fe2" d="M 14.5,82.5 C 33.3408,82.1698 52.0075,82.5031 70.5,83.5C 67.2745,85.2131 64.4412,87.5464 62,90.5C 61.3083,91.4368 61.475,92.1034 62.5,92.5C 59.8068,97.2249 57.6401,102.225 56,107.5C 40.4547,116.231 32.6213,129.564 32.5,147.5C 31.8333,147.167 31.1667,146.833 30.5,146.5C 30.2102,139.62 31.2102,132.954 33.5,126.5C 38.0903,117.409 44.9236,110.409 54,105.5C 54.662,103.187 55.162,100.854 55.5,98.5C 41.8333,98.5 28.1667,98.5 14.5,98.5C 14.5,93.1667 14.5,87.8333 14.5,82.5 Z"/></g>
<g><path style="opacity:1" fill="#587fe2" d="M 185.5,82.5 C 203.833,82.5 222.167,82.5 240.5,82.5C 240.5,87.8333 240.5,93.1667 240.5,98.5C 224.991,98.1705 209.658,98.5038 194.5,99.5C 191.786,93.7412 188.786,88.0745 185.5,82.5 Z"/></g>
<g><path style="opacity:1" fill="#577fdf" d="M 174.5,95.5 C 179.038,103.183 181.038,111.516 180.5,120.5C 179.749,117.754 178.749,115.087 177.5,112.5C 176.008,107.357 173.342,102.857 169.5,99C 150.17,98.5 130.836,98.3334 111.5,98.5C 112.602,96.9081 111.935,96.0748 109.5,96C 110.056,95.6174 110.389,95.1174 110.5,94.5C 129.698,78.7284 149.031,78.5617 168.5,94C 170.518,94.5046 172.518,95.0046 174.5,95.5 Z"/></g>
<g><path style="opacity:1" fill="#456dd6" d="M 182.5,110.5 C 183.069,114.329 182.402,117.663 180.5,120.5C 181.038,111.516 179.038,103.183 174.5,95.5C 163.098,79.7494 147.765,73.9161 128.5,78C 118.916,81.4297 111.25,87.263 105.5,95.5C 104.241,99.0246 102.241,102.025 99.5,104.5C 95.055,100.361 89.8883,97.6946 84,96.5C 78.7304,97.1048 74.397,99.4381 71,103.5C 70.2352,103.43 69.7352,103.097 69.5,102.5C 75.2441,94.4024 82.9108,92.2357 92.5,96C 94.6414,97.3076 96.6414,98.8076 98.5,100.5C 101.828,96.3305 104.995,91.9972 108,87.5C 127.786,69.7897 148.286,68.9564 169.5,85C 176.626,92.0852 180.959,100.585 182.5,110.5 Z"/></g>
<g><path style="opacity:1" fill="#4f6fca" d="M 174.5,95.5 C 172.518,95.0046 170.518,94.5046 168.5,94C 149.031,78.5617 129.698,78.7284 110.5,94.5C 108.784,94.6287 107.117,94.962 105.5,95.5C 111.25,87.263 118.916,81.4297 128.5,78C 147.765,73.9161 163.098,79.7494 174.5,95.5 Z"/></g>
<g><path style="opacity:1" fill="#5886e2" d="M 14.5,59.5 C 14.5,61.1667 14.5,62.8333 14.5,64.5C 14.5,70.5 14.5,76.5 14.5,82.5C 14.5,87.8333 14.5,93.1667 14.5,98.5C 28.1667,98.5 41.8333,98.5 55.5,98.5C 55.162,100.854 54.662,103.187 54,105.5C 44.9236,110.409 38.0903,117.409 33.5,126.5C 27.1667,126.5 20.8333,126.5 14.5,126.5C 14.7845,124.585 14.4511,122.919 13.5,121.5C 13.1695,100.66 13.5028,79.9933 14.5,59.5 Z"/></g>
<g><path style="opacity:1" fill="#5886e5" d="M 111.5,98.5 C 130.836,98.3334 150.17,98.5 169.5,99C 173.342,102.857 176.008,107.357 177.5,112.5C 152.167,112.5 126.833,112.5 101.5,112.5C 103.702,106.974 107.035,102.308 111.5,98.5 Z"/></g>
<g><path style="opacity:1" fill="#5583e1" d="M 240.5,59.5 C 241.497,79.9933 241.831,100.66 241.5,121.5C 241.167,121.5 240.833,121.5 240.5,121.5C 240.5,118.5 240.5,115.5 240.5,112.5C 229.147,112.168 217.814,112.501 206.5,113.5C 215.749,120.33 221.749,129.33 224.5,140.5C 224.5,143.5 224.5,146.5 224.5,149.5C 223.833,148.833 223.167,148.167 222.5,147.5C 220.918,128.924 211.252,116.924 193.5,111.5C 193.483,109.435 193.15,107.435 192.5,105.5C 193.117,105.611 193.617,105.944 194,106.5C 194.497,104.19 194.663,101.857 194.5,99.5C 209.658,98.5038 224.991,98.1705 240.5,98.5C 240.5,93.1667 240.5,87.8333 240.5,82.5C 240.5,76.5 240.5,70.5 240.5,64.5C 240.5,62.8333 240.5,61.1667 240.5,59.5 Z"/></g>
<g><path style="opacity:1" fill="#507dd5" d="M 110.5,94.5 C 110.389,95.1174 110.056,95.6174 109.5,96C 111.935,96.0748 112.602,96.9081 111.5,98.5C 107.035,102.308 103.702,106.974 101.5,112.5C 101.189,113.478 100.522,114.145 99.5,114.5C 96.9783,112.144 94.3116,109.977 91.5,108C 77.6992,104.063 70.3659,109.23 69.5,123.5C 59.698,126.126 52.3647,131.959 47.5,141C 46.7665,142.766 46.4332,144.599 46.5,146.5C 46.5,147.833 46.5,149.167 46.5,150.5C 46.7845,152.415 46.4511,154.081 45.5,155.5C 40.8313,142.005 43.8313,130.505 54.5,121C 58.1438,118.344 62.1438,116.511 66.5,115.5C 65.9645,110.688 66.9645,106.355 69.5,102.5C 69.7352,103.097 70.2352,103.43 71,103.5C 74.397,99.4381 78.7304,97.1048 84,96.5C 89.8883,97.6946 95.055,100.361 99.5,104.5C 102.241,102.025 104.241,99.0246 105.5,95.5C 107.117,94.962 108.784,94.6287 110.5,94.5 Z"/></g>
<g><path style="opacity:1" fill="#578be6" d="M 101.5,112.5 C 126.833,112.5 152.167,112.5 177.5,112.5C 178.749,115.087 179.749,117.754 180.5,120.5C 182.402,117.663 183.069,114.329 182.5,110.5C 183.479,113.625 183.813,116.958 183.5,120.5C 197.494,121.169 206.494,128.169 210.5,141.5C 210.662,143.527 210.495,145.527 210,147.5C 206.537,132.199 197.037,123.866 181.5,122.5C 180.571,123.689 180.238,125.022 180.5,126.5C 143.5,126.5 106.5,126.5 69.5,126.5C 69.5,125.5 69.5,124.5 69.5,123.5C 70.3659,109.23 77.6992,104.063 91.5,108C 94.3116,109.977 96.9783,112.144 99.5,114.5C 100.522,114.145 101.189,113.478 101.5,112.5 Z"/></g>
<g><path style="opacity:1" fill="#598de7" d="M 240.5,121.5 C 240.5,127.833 240.5,134.167 240.5,140.5C 235.167,140.5 229.833,140.5 224.5,140.5C 221.749,129.33 215.749,120.33 206.5,113.5C 217.814,112.501 229.147,112.168 240.5,112.5C 240.5,115.5 240.5,118.5 240.5,121.5 Z"/></g>
<g><path style="opacity:1" fill="#5691e7" d="M 210.5,141.5 C 213.393,159.184 206.06,170.351 188.5,175C 148.167,175.667 107.833,175.667 67.5,175C 57.1667,171.831 49.8334,165.331 45.5,155.5C 46.4511,154.081 46.7845,152.415 46.5,150.5C 47.3485,152.888 48.3485,155.221 49.5,157.5C 53.498,164.65 59.498,169.483 67.5,172C 108.5,172.667 149.5,172.667 190.5,172C 198.232,169.662 203.565,164.828 206.5,157.5C 207.306,156.003 207.972,154.336 208.5,152.5C 206.82,148.478 205.154,144.478 203.5,140.5C 152.162,140.167 100.829,140.5 49.5,141.5C 48.7255,143.396 47.7255,145.063 46.5,146.5C 46.4332,144.599 46.7665,142.766 47.5,141C 52.3647,131.959 59.698,126.126 69.5,123.5C 69.5,124.5 69.5,125.5 69.5,126.5C 106.5,126.5 143.5,126.5 180.5,126.5C 180.238,125.022 180.571,123.689 181.5,122.5C 197.037,123.866 206.537,132.199 210,147.5C 210.495,145.527 210.662,143.527 210.5,141.5 Z"/></g>
<g><path style="opacity:1" fill="#5996ea" d="M 14.5,126.5 C 20.8333,126.5 27.1667,126.5 33.5,126.5C 31.2102,132.954 30.2102,139.62 30.5,146.5C 30.5,148.167 30.5,149.833 30.5,151.5C 29.5489,152.919 29.2155,154.585 29.5,156.5C 24.5,156.5 19.5,156.5 14.5,156.5C 14.5,146.5 14.5,136.5 14.5,126.5 Z"/></g>
<g><path style="opacity:1" fill="#5999eb" d="M 206.5,157.5 C 154.167,156.167 101.833,156.167 49.5,157.5C 48.3485,155.221 47.3485,152.888 46.5,150.5C 46.5,149.167 46.5,147.833 46.5,146.5C 47.7255,145.063 48.7255,143.396 49.5,141.5C 100.829,140.5 152.162,140.167 203.5,140.5C 205.154,144.478 206.82,148.478 208.5,152.5C 207.972,154.336 207.306,156.003 206.5,157.5 Z"/></g>
<g><path style="opacity:1" fill="#5899e6" d="M 240.5,121.5 C 240.833,121.5 241.167,121.5 241.5,121.5C 241.831,144.339 241.497,167.006 240.5,189.5C 240.5,182.833 240.5,176.167 240.5,169.5C 234.794,169.171 229.128,169.505 223.5,170.5C 222.965,172.261 221.965,173.594 220.5,174.5C 222.596,168.354 223.93,162.02 224.5,155.5C 224.5,153.5 224.5,151.5 224.5,149.5C 224.5,146.5 224.5,143.5 224.5,140.5C 229.833,140.5 235.167,140.5 240.5,140.5C 240.5,134.167 240.5,127.833 240.5,121.5 Z"/></g>
<g><path style="opacity:1" fill="#58a0e9" d="M 13.5,121.5 C 14.4511,122.919 14.7845,124.585 14.5,126.5C 14.5,136.5 14.5,146.5 14.5,156.5C 19.5,156.5 24.5,156.5 29.5,156.5C 29.2155,154.585 29.5489,152.919 30.5,151.5C 30.5,152.5 30.5,153.5 30.5,154.5C 31.5024,169.172 38.1691,180.506 50.5,188.5C 46.6827,189.018 43.6827,187.685 41.5,184.5C 32.5246,183.502 23.5246,183.168 14.5,183.5C 14.5,185.5 14.5,187.5 14.5,189.5C 13.5025,167.006 13.1692,144.339 13.5,121.5 Z"/></g>
<g><path style="opacity:1" fill="#4f96d5" d="M 30.5,154.5 C 35.9493,171.448 47.2826,182.615 64.5,188C 106.833,188.667 149.167,188.667 191.5,188C 209.014,183.652 220.014,172.818 224.5,155.5C 223.93,162.02 222.596,168.354 220.5,174.5C 212.747,186.385 201.747,193.218 187.5,195C 148.167,195.667 108.833,195.667 69.5,195C 62.6282,194.099 56.2948,191.933 50.5,188.5C 38.1691,180.506 31.5024,169.172 30.5,154.5 Z"/></g>
<g><path style="opacity:1" fill="#448ce0" d="M 30.5,146.5 C 31.1667,146.833 31.8333,147.167 32.5,147.5C 35.5325,168.74 47.5325,181.573 68.5,186C 107.833,186.667 147.167,186.667 186.5,186C 208.295,182.371 220.295,169.538 222.5,147.5C 223.167,148.167 223.833,148.833 224.5,149.5C 224.5,151.5 224.5,153.5 224.5,155.5C 220.014,172.818 209.014,183.652 191.5,188C 149.167,188.667 106.833,188.667 64.5,188C 47.2826,182.615 35.9493,171.448 30.5,154.5C 30.5,153.5 30.5,152.5 30.5,151.5C 30.5,149.833 30.5,148.167 30.5,146.5 Z"/></g>
<g><path style="opacity:1" fill="#59a0ed" d="M 206.5,157.5 C 203.565,164.828 198.232,169.662 190.5,172C 149.5,172.667 108.5,172.667 67.5,172C 59.498,169.483 53.498,164.65 49.5,157.5C 101.833,156.167 154.167,156.167 206.5,157.5 Z"/></g>
<g><path style="opacity:1" fill="#58a8eb" d="M 240.5,189.5 C 240.692,193.902 239.692,197.902 237.5,201.5C 232.489,201.666 227.489,201.499 222.5,201C 223.833,200.333 224.833,199.333 225.5,198C 219.667,197.833 213.833,197.667 208,197.5C 154.5,198.831 101,198.831 47.5,197.5C 41.5,197.667 35.5,197.833 29.5,198C 30.1667,199.333 31.1667,200.333 32.5,201C 27.5111,201.499 22.5111,201.666 17.5,201.5C 15.3082,197.902 14.3082,193.902 14.5,189.5C 14.5,187.5 14.5,185.5 14.5,183.5C 23.5246,183.168 32.5246,183.502 41.5,184.5C 43.6827,187.685 46.6827,189.018 50.5,188.5C 56.2948,191.933 62.6282,194.099 69.5,195C 108.833,195.667 148.167,195.667 187.5,195C 201.747,193.218 212.747,186.385 220.5,174.5C 221.965,173.594 222.965,172.261 223.5,170.5C 229.128,169.505 234.794,169.171 240.5,169.5C 240.5,176.167 240.5,182.833 240.5,189.5 Z"/></g>
<g><path style="opacity:1" fill="#5ab1f2" d="M 237.5,201.5 C 237.567,202.959 237.234,204.292 236.5,205.5C 226.718,202.959 217.718,204.459 209.5,210C 204.946,211.741 200.279,213.074 195.5,214C 150.167,214.667 104.833,214.667 59.5,214C 51.4016,212.748 44.0683,209.748 37.5,205C 31.0853,204.21 24.752,204.376 18.5,205.5C 17.7659,204.292 17.4326,202.959 17.5,201.5C 22.5111,201.666 27.5111,201.499 32.5,201C 31.1667,200.333 30.1667,199.333 29.5,198C 35.5,197.833 41.5,197.667 47.5,197.5C 101,198.831 154.5,198.831 208,197.5C 213.833,197.667 219.667,197.833 225.5,198C 224.833,199.333 223.833,200.333 222.5,201C 227.489,201.499 232.489,201.666 237.5,201.5 Z"/></g>
<g><path style="opacity:1" fill="#59afe9" d="M 236.5,205.5 C 233.345,212.982 228.679,219.316 222.5,224.5C 159.167,224.5 95.8333,224.5 32.5,224.5C 26.3215,219.316 21.6548,212.982 18.5,205.5C 24.752,204.376 31.0853,204.21 37.5,205C 44.0683,209.748 51.4016,212.748 59.5,214C 104.833,214.667 150.167,214.667 195.5,214C 200.279,213.074 204.946,211.741 209.5,210C 217.718,204.459 226.718,202.959 236.5,205.5 Z"/></g>
<g><path style="opacity:1" fill="#54ace1" d="M 32.5,224.5 C 95.8333,224.5 159.167,224.5 222.5,224.5C 213.936,231.945 203.936,236.445 192.5,238C 149.167,238.667 105.833,238.667 62.5,238C 51.0645,236.445 41.0645,231.945 32.5,224.5 Z"/></g>
</svg>
